<mxfile host="app.diagrams.net" modified="2024-01-05T09:26:11.588Z" agent="Mozilla/5.0 (Windows NT 10.0; Win64; x64) AppleWebKit/537.36 (KHTML, like Gecko) Chrome/120.0.0.0 Safari/537.36" version="22.1.16" etag="QNyLsrBPcgJ00r4IT5_6" type="github">
  <diagram name="第 1 页" id="KF1jmlCt_eGJFtMaKy83">
    <mxGraphModel>
      <root>
        <mxCell id="0" />
        <mxCell id="1" parent="0" />
      </root>
    </mxGraphModel>
  </diagram>
</mxfile>
